<svg id="GROUND_PLANT" data-name="GROUND &amp; PLANT" xmlns="http://www.w3.org/2000/svg" viewBox="0 0 500 500"><defs><style>.cls-1{fill:#404b7c;}.cls-2{fill:#9ab3da;}.cls-3{fill:#ecbdbb;}.cls-4{fill:#f68d88;}.cls-5{fill:#d66767;}.cls-6{fill:#b74949;}.cls-7{fill:#e9f3ff;}.cls-8{fill:#fff;}</style></defs><title>Onboarding</title><path class="cls-1" d="M306,437.92H207.7a0.5,0.5,0,1,1,0-1H306A0.5,0.5,0,0,1,306,437.92Z"/><path class="cls-1" d="M368,441.33h-72.5a0.5,0.5,0,0,1,0-1H368A0.5,0.5,0,1,1,368,441.33Z"/><path class="cls-1" d="M279.51,445.17h-35a0.5,0.5,0,1,1,0-1h35A0.5,0.5,0,0,1,279.51,445.17Z"/><path class="cls-2" d="M430.13,437.42s13.07-5.67,14.6-12.63-8.67-10.23-15.61.46a122.55,122.55,0,0,1-9.66,12.17h10.67Z"/><path class="cls-1" d="M388.37,437.42S375.87,425.33,375,410.5s14-12,17.17-1.17S399,437.42,399,437.42H388.37Z"/><path class="cls-2" d="M393,436.33a0.5,0.5,0,0,1-.43-0.24C386,425.15,380.94,405.16,380.88,405a0.5,0.5,0,0,1,1-.24c0,0.2,5.06,20,11.61,30.85A0.5,0.5,0,0,1,393,436.33Z"/><path class="cls-2" d="M396.7,437.42s-6.17-20.75,3.33-46.58,27.5-25.33,27.5-12.5-15.67,43.5-20.67,59.08H396.7Z"/><path class="cls-1" d="M401.12,436.33h0a0.5,0.5,0,0,1-.45-0.54c3-33.38,17.54-61.12,17.68-61.4a0.5,0.5,0,0,1,.88.47c-0.15.27-14.61,27.85-17.57,61A0.5,0.5,0,0,1,401.12,436.33Z"/><path class="cls-1" d="M404.25,437.42s5.5-23,16.88-39.32,22-23,27.75-20.1-3.75,44.09-29.12,59.42h-15.5Z"/><path class="cls-2" d="M413.75,436.33a0.5,0.5,0,0,1-.41-0.78c0.2-.29,20.11-29.57,31.59-52.53a0.5,0.5,0,1,1,.89.45c-11.51,23-31.46,52.35-31.66,52.64A0.5,0.5,0,0,1,413.75,436.33Z"/><path class="cls-3" d="M51.19,144.77L73.77,141c-5.35.9-8.94,6.39-8.06,12.38l-22.58,3.8C42.25,151.16,45.84,145.67,51.19,144.77Z"/><path class="cls-4" d="M188.67,124.82c5.47-.77,10.63,3.55,11.52,9.63L235,373.52c0.89,6.09-2.84,11.65-8.31,12.41L112.09,402c-5.48.77-10.63-3.54-11.52-9.63L65.71,153.35c-0.89-6.08,2.83-11.64,8.31-12.41Z"/><path class="cls-2" d="M183,135.9c5.47-.77,10.62,3.54,11.51,9.62l31.92,218.92c0.89,6.09-2.83,11.65-8.31,12.42L117.75,391c-5.48.77-10.64-3.54-11.53-9.64L74.3,162.43c-0.89-6.09,2.83-11.66,8.31-12.43l36.16-5.08a7.42,7.42,0,0,1,7.23,3.35,8.43,8.43,0,0,0,8.16,4,8.32,8.32,0,0,0,6.7-6.07,7.33,7.33,0,0,1,6-5.21Z"/><path class="cls-1" d="M132.33,139.64a3.21,3.21,0,0,1,3.46,2.89,3.17,3.17,0,0,1-2.49,3.74,3.22,3.22,0,0,1-3.47-2.9A3.18,3.18,0,0,1,132.33,139.64Z"/><polygon class="cls-5" points="100.57 392.42 77.99 396.22 43.13 157.15 65.71 153.35 100.57 392.42"/><path class="cls-6" d="M112.09,402l-22.58,3.8c-5.48.77-10.63-3.54-11.52-9.63l22.58-3.8C101.46,398.51,106.61,402.82,112.09,402Z"/><path class="cls-7" d="M177.54,162.81a4.07,4.07,0,0,1,4.39,3.66l9.58,65.7a4,4,0,0,1-3.17,4.73l-82,11.52a4.07,4.07,0,0,1-4.38-3.66l-9.58-65.7a4,4,0,0,1,3.16-4.73Z"/><path class="cls-1" d="M161.3,247.49a2.36,2.36,0,0,1,2.54,2.12L164,250.8a2.33,2.33,0,0,1-1.83,2.73l-3.54.5a2.36,2.36,0,0,1-2.54-2.12l-0.17-1.19a2.33,2.33,0,0,1,1.83-2.73Z"/><path class="cls-7" d="M199.13,299.72a2.36,2.36,0,0,1,2.55,2.13l0.17,1.18a2.34,2.34,0,0,1-1.84,2.74l-46.49,6.53a2.36,2.36,0,0,1-2.55-2.13L150.8,309a2.33,2.33,0,0,1,1.84-2.74Z"/><path class="cls-7" d="M181.72,339c4.28-.6,8.33,2.77,9,7.53l0.54,3.68c0.69,4.76-2.22,9.11-6.51,9.71l-39.83,5.6c-4.28.6-8.33-2.77-9-7.53l-0.54-3.68c-0.69-4.76,2.22-9.11,6.51-9.71Z"/><path class="cls-1" d="M142.25,320.37a2.37,2.37,0,0,1,2.55,2.13l0.17,1.19a2.33,2.33,0,0,1-1.84,2.74l-26.5,3.72A2.36,2.36,0,0,1,114.1,328l-0.17-1.19a2.33,2.33,0,0,1,1.83-2.74Z"/><path class="cls-7" d="M192.57,257.51a2.78,2.78,0,0,1,3,2.51l2.83,19.4a2.75,2.75,0,0,1-2.17,3.24l-17.44,2.45a2.79,2.79,0,0,1-3-2.51L173,263.19a2.75,2.75,0,0,1,2.17-3.24Z"/><path class="cls-7" d="M159.1,262.21a2.78,2.78,0,0,1,3,2.51l2.83,19.4a2.75,2.75,0,0,1-2.17,3.24l-17.45,2.45a2.79,2.79,0,0,1-3-2.51l-2.83-19.4a2.75,2.75,0,0,1,2.17-3.24Z"/><path class="cls-1" d="M149.4,249.17a2.36,2.36,0,0,1,2.55,2.12l0.17,1.19a2.33,2.33,0,0,1-1.84,2.74l-26.49,3.72a2.36,2.36,0,0,1-2.55-2.12l-0.17-1.19a2.33,2.33,0,0,1,1.84-2.74Z"/><path class="cls-7" d="M125.63,266.91a2.79,2.79,0,0,1,3,2.51l2.83,19.4a2.76,2.76,0,0,1-2.17,3.24l-17.44,2.45a2.79,2.79,0,0,1-3-2.51L106,272.6a2.75,2.75,0,0,1,2.17-3.24Z"/><path class="cls-1" d="M140.45,308A2.36,2.36,0,0,1,143,310.1l0.17,1.18a2.33,2.33,0,0,1-1.84,2.74l-26.5,3.72a2.36,2.36,0,0,1-2.54-2.13l-0.17-1.18a2.33,2.33,0,0,1,1.83-2.74Z"/><path class="cls-1" d="M173.73,245.75a2.36,2.36,0,0,1,2.54,2.12l0.17,1.19a2.33,2.33,0,0,1-1.83,2.73l-3.54.5a2.36,2.36,0,0,1-2.54-2.12L168.36,249a2.33,2.33,0,0,1,1.83-2.73Z"/><path class="cls-7" d="M200.93,312.12a2.37,2.37,0,0,1,2.55,2.13l0.17,1.19a2.33,2.33,0,0,1-1.84,2.74l-46.49,6.53a2.36,2.36,0,0,1-2.55-2.12l-0.17-1.19a2.34,2.34,0,0,1,1.84-2.74Z"/><path class="cls-2" d="M146.37,235.87v0A0,0,0,0,0,146.37,235.87Z"/><path class="cls-2" d="M169.55,171.85l-25.71,3.62c-3.4.48-5.71,3.92-5.16,7.71-0.55-3.79-3.76-6.46-7.16-6l-25.71,3.61,7.69,52.73,25.71-3.62c3.39-.47,6.59,2.18,7.15,5.94-0.52-3.77,1.79-7.19,5.17-7.67l25.71-3.61Zm-46,40.28-2.69-18.48,14.52,7.4Z"/><path class="cls-1" d="M145,227.08a0.5,0.5,0,0,1-.49-0.43l-6-41.35a0.5,0.5,0,1,1,1-.14l6,41.35a0.5,0.5,0,0,1-.42.57H145Z"/><path class="cls-1" d="M177.23,224.58l1,6.85-63.73,9-1-6.85,25.71-3.61c3.4-.48,6.6,2.19,7.16,6h0c-0.55-3.79,1.76-7.23,5.16-7.71Z"/><polygon class="cls-3" points="274.44 394.08 274.13 398.76 273.52 407.67 265.69 407.67 265.38 402.12 264.94 394.58 274.44 394.08"/><path class="cls-1" d="M274.45,394.08l-0.32,4.68c-2.57,1-5.9,2.31-8.75,3.36l-0.43-7.54Z"/><path class="cls-1" d="M279.51,422.57a15.83,15.83,0,0,0-7.5,5.11,22.43,22.43,0,0,1,2.06,9.74h4.21S279.43,428,279.51,422.57Z"/><path class="cls-4" d="M279.51,422.57a15.85,15.85,0,0,0-7.5,5.11l-0.06.07a42.29,42.29,0,0,1-7.52,7.32,11.94,11.94,0,0,1-7.11,2.35H241.45s-0.49-5.44,5.16-9.25c6.67-4.5,12.17-12.5,14.84-22.92a67.28,67.28,0,0,1,14.41,0s3.54,11.08,3.65,16.17C279.52,421.77,279.52,422.16,279.51,422.57Z"/><path class="cls-2" d="M299.85,250.09c-0.3,2-.63,3.69-1,5.16-1.62,6.9-5.09,18.82-8.53,30.14-4.52,14.95-9,28.86-9,28.86s1.25,14.75,2.25,26.5-5,56-5,56c-6.25,1.5-16.75.5-16.75,0.5s-7.75-59.5-8.5-85.25-0.25-67,1-81.75,0-36.23,18.75-37.25C302.18,191.41,302.79,230.85,299.85,250.09Z"/><path class="cls-1" d="M273.37,394.58h-0.06a0.5,0.5,0,0,1-.43-0.56c0-.32,4-31.66,3.64-42-0.1-2.91-.38-6.92-0.67-11.18-0.78-11.27-1.75-25.3-.29-30.8,2-7.4,12.55-61.26,12.66-61.8a0.5,0.5,0,1,1,1,.19c-0.11.54-10.69,54.44-12.67,61.87-1.42,5.34-.46,19.27.32,30.47,0.29,4.26.57,8.29,0.67,11.21,0.35,10.42-3.61,41.84-3.65,42.16A0.5,0.5,0,0,1,273.37,394.58Z"/><path class="cls-1" d="M299.85,250.09c-0.3,2-.63,3.69-1,5.16-1.62,6.9-5.09,18.82-8.53,30.14l-5.88-39.15,14.41,2.09Z"/><polygon class="cls-3" points="351.54 394.08 351.22 398.76 350.62 407.67 342.79 407.67 342.47 402.12 342.04 394.58 351.54 394.08"/><path class="cls-1" d="M351.54,394.08l-0.32,4.68c-2.57,1-5.9,2.31-8.75,3.36L342,394.58Z"/><path class="cls-1" d="M356.6,422.57a15.83,15.83,0,0,0-7.5,5.11,22.43,22.43,0,0,1,2.06,9.74h4.21S356.52,428,356.6,422.57Z"/><path class="cls-4" d="M356.6,422.57a15.85,15.85,0,0,0-7.5,5.11l-0.06.07a42.29,42.29,0,0,1-7.52,7.32,11.94,11.94,0,0,1-7.11,2.35H318.54s-0.49-5.44,5.16-9.25c6.67-4.5,12.17-12.5,14.84-22.92a67.28,67.28,0,0,1,14.41,0s3.54,11.08,3.65,16.17C356.61,421.77,356.61,422.16,356.6,422.57Z"/><path class="cls-2" d="M279.62,201.5s8.5,51.5,9.75,55,28,55.25,32.25,66.25,16.5,74,16.5,74,10,0.75,17-.75c0,0,2.75-40.75.75-57.25s-4.75-21.75-8-32.75-8-63.25-10.75-76.75-5.25-23.75-11.75-31.75S277.12,172.5,279.62,201.5Z"/><path class="cls-1" d="M328.12,227c-15,0-18.37-17.27-18.41-17.45a0.5,0.5,0,1,1,1-.18c0.13,0.72,3.43,17.56,18.64,16.59a0.49,0.49,0,0,1,.53.47,0.5,0.5,0,0,1-.47.53C329,227,328.54,227,328.12,227Z"/><path class="cls-1" d="M350.12,393.75h0a0.5,0.5,0,0,1-.47-0.53c0-.35,2-35.63,1.25-48.94-0.45-8.09-4-18.58-7.17-27.83-2-6-3.82-11.22-4.32-14.62-0.36-2.48-1.27-9.39-2.43-18.14-2.79-21.18-7-53.19-8.06-57.06-1.48-5.42-6.11-19-6.16-19.14a0.5,0.5,0,0,1,.95-0.32c0,0.14,4.69,13.74,6.17,19.2,1.07,3.93,5.29,36,8.09,57.19,1.15,8.75,2.06,15.65,2.42,18.12,0.49,3.31,2.24,8.47,4.28,14.45,3.17,9.31,6.77,19.87,7.22,28.1,0.74,13.37-1.23,48.7-1.25,49.06A0.5,0.5,0,0,1,350.12,393.75Z"/><path class="cls-1" d="M287.37,247.5h-0.08c-0.26,0-6.3-1.08-7.39-4-1-2.67-8.05-36.47-8.35-37.91a0.5,0.5,0,1,1,1-.2c0.07,0.35,7.34,35.16,8.31,37.76,0.65,1.72,4,2.8,5.92,3.21l-7.21-41.79a0.5,0.5,0,0,1,1-.17l7.33,42.5A0.5,0.5,0,0,1,287.37,247.5Z"/><path class="cls-3" d="M205,189.08l-6.42,2.58s-11.17-2.29-13.17-3.46-3.21.75-1.33,2.67a30.52,30.52,0,0,0,5.21,3.88,58.11,58.11,0,0,1-9.5,3.42c-3.79.79-6.54,0.83-6.62,2.42s2.21,2,2.21,2-1.79.46-1.5,2,4,1.21,4,1.21-1.87.71-1.46,1.92,4.38,0.79,4.38.79a1.25,1.25,0,0,0-.33,1.88c0.88,1.08,15,.06,21.56-10.94l8.75-2.44Z"/><path class="cls-1" d="M176.91,202.83a0.5,0.5,0,0,1-.09-1c0.06,0,5.68-1,9-2a0.5,0.5,0,0,1,.29,1c-3.41,1-9.09,2-9.14,2.06h-0.09Z"/><path class="cls-1" d="M179.58,205.88a0.5,0.5,0,0,1-.13-1s5-1.34,8.24-2.61a0.5,0.5,0,1,1,.36.93c-3.32,1.29-8.29,2.63-8.34,2.64Z"/><path class="cls-1" d="M181.82,208.58a0.5,0.5,0,0,1-.14-1,73,73,0,0,0,7.91-2.85,0.5,0.5,0,1,1,.42.91,74,74,0,0,1-8,2.9Z"/><path class="cls-2" d="M211.87,181.5L204,186.42s-2.33,9.58,5.67,14.42l10.83-2.25S223.12,184.83,211.87,181.5Z"/><path class="cls-4" d="M265.91,152.49c-1.46,14.65-4,30.33-7.79,32.39-2.17,1.19-7.58,2.95-13.76,4.75-12,3.48-26.87,7.12-26.87,7.12-4.87-3.75-4.87-13-4.87-13L243.37,168s0.38-7.88,1.25-17.88-1.31-25.24,5.87-31.87c8.13-7.5,16.76-.25,16.88,10C267.42,132.47,266.94,142.23,265.91,152.49Z"/><path class="cls-1" d="M265.91,152.49c-1.46,14.65-4,30.33-7.79,32.39-2.17,1.19-7.58,2.95-13.76,4.75C250.1,179.7,261.81,159.45,265.91,152.49Z"/><path class="cls-1" d="M266,60.19s10.92-6.67,19.5.25S294.1,77,293.94,84.28s9.58,6.17,14.83,13.17,5.88,23.5-13,28.75-33.5-1.12-38-10.37,3.57-12.92,4.13-16c0.79-4.37-6.21-6.71-1.71-13s-3-17.17-3-17.17A17.09,17.09,0,0,1,266,60.19Z"/><path class="cls-4" d="M333,207.12s-3.53,1-9.14,2.13c-8.9,1.87-23,4.3-36.6,4.37-22.13.13-31.76-5.87-31.76-5.87,1.38-11.25.76-36.75,0.76-36.75S248,156.62,248,153.25s4.63-24.75,4.63-24.75l-2.13-10.25s17.1-14.63,29.85-15.63c14.41-1.12,32.53,7.5,32.53,7.5s2.88,16.26,4.5,22.63c0.94,3.69,6,28,10.15,47.9C330.51,195.08,333,207.12,333,207.12Z"/><path class="cls-1" d="M333,207.12s-3.53,1-9.14,2.13c-12.05-11.08-27.11-25-28.73-26.75l32.4-1.85C330.51,195.08,333,207.12,333,207.12Z"/><path class="cls-3" d="M256.38,183a0.5,0.5,0,0,1-.5-0.5c0-5.88-.12-10.55-0.14-11.36-0.83-1.45-8.25-14.54-8.25-17.89s4.23-23,4.61-24.75l-1.61-7.77a0.5,0.5,0,0,1,1-.2l1.63,7.88a0.48,0.48,0,0,1,0,.21c0,0.21-4.61,21.36-4.61,24.64,0,2.66,5.91,13.53,8.18,17.5a0.51,0.51,0,0,1,.07.24s0.12,5.06.14,11.51a0.5,0.5,0,0,1-.5.5h0Z"/><path class="cls-2" d="M278.9,100.19c-6.8.44-10.12,7.5-11.19,16.5,0,0,4.88-3.44,8.69-3.94s11.44,2.94,11.44,2.94S291.33,99.38,278.9,100.19Z"/><path class="cls-3" d="M274.29,168.58s-14.17-4.58-14.67-4.67-18.92,3.5-19.5,4.17a1.31,1.31,0,0,0,.67,1.92c0.67,0.33,11.08-.83,11.08-0.83a40.14,40.14,0,0,0-.92,3.92c0,0.58,3.08,5.58,4.92,6a7.28,7.28,0,0,0,3.75-.33l1.33-1.08a15.6,15.6,0,0,0,3.17.5c0.83-.08,2.5-1.75,2.5-1.75l6.17,2.33Z"/><path class="cls-1" d="M253.08,174.92l-0.15,0a0.5,0.5,0,0,1-.33-0.63l1.71-5.54a0.5,0.5,0,1,1,1,.29l-1.71,5.54A0.5,0.5,0,0,1,253.08,174.92Z"/><path class="cls-1" d="M255.12,177.21a0.5,0.5,0,0,1-.5-0.5c0-.14,0-0.23,2.63-6.08a0.5,0.5,0,0,1,.91.41c-0.92,2.06-2.42,5.41-2.55,5.79A0.5,0.5,0,0,1,255.12,177.21Z"/><path class="cls-2" d="M283.79,167.33s3.58,11.58-5.83,19.92l-8.33-4.58s-2.25-12,5-16.33Z"/><path class="cls-4" d="M326.62,200.62c-11.44,1.84-41.33-12.91-49.28-17a19,19,0,0,1,3.7-14.15l34.08,4.28s-6.5-20.65-11.13-35-0.44-31.53,8.88-28.63c15.25,4.76,20.25,29.5,23,50.76S339.87,198.5,326.62,200.62Z"/><path class="cls-3" d="M315.12,174.27h-0.06L281,170a0.5,0.5,0,1,1,.13-1l33.31,4.18c-1.21-3.83-6.81-21.6-10.89-34.27-2.91-9-2.44-19.79,1.1-25.56a0.5,0.5,0,1,1,.85.52c-3.41,5.55-3.83,15.95-1,24.73,4.58,14.21,11.07,34.82,11.13,35A0.5,0.5,0,0,1,315.12,174.27Z"/><path class="cls-3" d="M324.45,201.28c-12.71,0-39.14-13-47.33-17.19a0.5,0.5,0,1,1,.46-0.89c6.16,3.15,37.44,18.78,49,16.93l0.87-.17a0.5,0.5,0,0,1,.21,1l-0.93.18A14.27,14.27,0,0,1,324.45,201.28Z"/><path class="cls-3" d="M328.79,184.08a0.5,0.5,0,0,1-.45-0.29c-2.38-5.16-11-8.12-11-8.15a0.5,0.5,0,0,1,.32-0.95c0.37,0.13,9.07,3.13,11.63,8.68A0.5,0.5,0,0,1,328.79,184.08Z"/><path class="cls-3" d="M283,104.69a7.09,7.09,0,0,1-4.31,3.31,5,5,0,0,1-4.57-1.43l-0.53-4.5-0.78-6.57L280,90.87l0.73,3.72Z"/><path class="cls-1" d="M280.73,94.58a9.42,9.42,0,0,1-7.18,7.49l-0.78-6.57L280,90.87Z"/><path class="cls-3" d="M267.19,64.86c-7.76,2.12-9.75,9.42-3.5,24.92,4.43,11,15.25,10.14,18.33-3.44C285.51,71,275.1,62.69,267.19,64.86Z"/><path class="cls-1" d="M255.6,81s11.92-2.13,17.5-11.3c0,0,.42,5.33,4.75,7.75l1.42,6.42s6.42-3.42,4.33-13.58-12.21-17.08-22.67-10.92C249.39,66.17,255.6,81,255.6,81Z"/><path class="cls-3" d="M280.4,82.86a5.16,5.16,0,0,1,3.18-5.7,3.4,3.4,0,0,1,2.69,0c3,1.42,2.42,9.92-5,11.08Z"/><path class="cls-1" d="M283,86a0.5,0.5,0,0,1-.49-0.41c0-.24-1.08-5.91,2.64-7.3a0.5,0.5,0,1,1,.35.94c-2.94,1.1-2,6.13-2,6.18a0.5,0.5,0,0,1-.4.58H283Z"/><path class="cls-1" d="M285.79,83.1a0.5,0.5,0,0,1-.41-0.21,4.42,4.42,0,0,0-2.27-1.49,0.5,0.5,0,1,1,.25-1,5.36,5.36,0,0,1,2.83,1.87A0.5,0.5,0,0,1,285.79,83.1Z"/><rect class="cls-2" x="264.48" y="37" width="3.51" height="11.13" rx="1.1" ry="1.1"/><rect class="cls-2" x="248.7" y="43.54" width="3.51" height="11.12" rx="1.1" ry="1.1" transform="translate(38.64 191.48) rotate(-45)"/><rect class="cls-2" x="280.27" y="43.54" width="3.51" height="11.12" rx="1.1" ry="1.1" transform="translate(117.32 -185.04) rotate(45)"/><path class="cls-2" d="M331.18,114s7.11,0.87,12.87-1.78a24.22,24.22,0,1,0-7.61-6.32C335.42,108.14,333.37,112.14,331.18,114Z"/><path class="cls-7" d="M359.47,88.15a0.54,0.54,0,0,0,.67-0.82,8.21,8.21,0,0,0-6.47-2.63c-6.54,0-2.08,7.83-1,9.67s3.63,6.13,3.46,7.46c-0.14,1.12-2.39,1.74-3.75-.08a0.54,0.54,0,0,0-1,.35,5.24,5.24,0,0,0,2.51,4.14c3.71,2.67,9.93,0,9-5.58-0.58-3.38-5.46-9.38-6-11.83C356.41,87.21,357.94,87.34,359.47,88.15Z"/><circle class="cls-7" cx="353.84" cy="77.82" r="3.38"/><path class="cls-1" d="M276.15,78.11s-2.23-2.92-4.45-1.21a0.81,0.81,0,0,0-.86-0.61c-0.65.11-.32,2.13-0.32,2.13A14.15,14.15,0,0,1,276.15,78.11Z"/><path class="cls-1" d="M262.64,82.34s-0.45-3.33,1.64-2.79a0.77,0.77,0,0,1,.33-0.77c0.69-.26,1.21,1.61,1.21,1.61A6,6,0,0,0,262.64,82.34Z"/><ellipse class="cls-1" cx="273.42" cy="82.61" rx="1.38" ry="1.71" transform="translate(-11.52 62.82) rotate(-12.84)"/><circle class="cls-8" cx="272.98" cy="82.08" r="0.37" transform="translate(-11.41 62.71) rotate(-12.84)"/><ellipse class="cls-1" cx="265.48" cy="84.41" rx="1.38" ry="1.71" transform="translate(-12.12 61.1) rotate(-12.84)"/><circle class="cls-8" cx="265.05" cy="83.89" r="0.37" transform="matrix(0.98, -0.22, 0.22, 0.98, -12.01, 60.99)"/><path class="cls-1" d="M269.39,89.41a1.94,1.94,0,0,1-1.68-.84,1.25,1.25,0,0,1-.18-1.21A2.46,2.46,0,0,1,269,86.18l-0.62-2.81a0.5,0.5,0,0,1,1-.21l0.72,3.26a0.5,0.5,0,0,1-.37.59,2.22,2.22,0,0,0-1.28.71,0.28,0.28,0,0,0,.08.28c0.55,0.81,1.87.16,1.88,0.15a0.5,0.5,0,0,1,.45.89A3.45,3.45,0,0,1,269.39,89.41Z"/><path class="cls-8" d="M270.47,92.38s4.07,1.62,5.48-3.28Z"/><circle class="cls-7" cx="310.87" cy="50.7" r="9.75"/><path class="cls-4" d="M322.32,42a1.56,1.56,0,0,1,0,2.21L312,54.46a1.56,1.56,0,0,1-2.21,0l-4.91-4.91a1.57,1.57,0,0,1,2.21-2.21l3.8,3.8L320.12,42A1.56,1.56,0,0,1,322.32,42Z"/><path class="cls-7" d="M408.18,144.9v20.33a8.25,8.25,0,0,1-8.25,8.25H373.85l-12.33,12.34V173.48H359.2a8.25,8.25,0,0,1-8.25-8.25V144.9a8.25,8.25,0,0,1,8.25-8.25h40.73A8.25,8.25,0,0,1,408.18,144.9Z"/><rect class="cls-2" x="361.85" y="161.29" width="6.08" height="3.5" rx="1.04" ry="1.04"/><rect class="cls-2" x="361.85" y="152.79" width="28.42" height="3.5" rx="1.04" ry="1.04"/><rect class="cls-2" x="361.85" y="144.29" width="13.17" height="3.5" rx="1.04" ry="1.04"/><path class="cls-4" d="M235.85,94.22s-9.12,1.11-16.51-2.28a31.07,31.07,0,1,1,9.76-8.11C230.41,86.67,233,91.8,235.85,94.22Z"/><path class="cls-8" d="M197.47,60.5s6.33-3.75,8-9.17,6.25-2.5,6,1.42a17.34,17.34,0,0,1-1.5,6.33h10.42c2.33,0,2.42,5.08,0,5.75,0,0,2.42,3.92-1.08,6.5a4.19,4.19,0,0,1-1.42,4.92s0.67,3.92-3.83,4.33S197,78.66,197,78.66Z"/><rect class="cls-2" x="187.3" y="58" width="11.75" height="21.92" rx="1.58" ry="1.58"/><circle class="cls-7" cx="155.15" cy="105.25" r="16.06"/><path class="cls-4" d="M155.15,113.25c13.58-6.5,9-15.25,5.67-15.92s-5.67,2.5-5.67,2.5-2.33-3.17-5.67-2.5S141.57,106.75,155.15,113.25Z"/><circle class="cls-7" cx="212.26" cy="108.11" r="3.66"/><circle class="cls-7" cx="198.44" cy="113.6" r="1.81"/><circle class="cls-7" cx="164.96" cy="422.89" r="6.8"/><circle class="cls-7" cx="146.56" cy="414.35" r="3.37"/><circle class="cls-7" cx="368.17" cy="207.98" r="5.65"/><circle class="cls-7" cx="352.89" cy="200.88" r="2.8"/><ellipse class="cls-7" cx="386.43" cy="383" rx="2.81" ry="3.88" transform="translate(-85.83 112.85) rotate(-14.97)"/><ellipse class="cls-7" cx="393.74" cy="370.94" rx="2.1" ry="2.9" transform="translate(-46.25 56.24) rotate(-7.72)"/><ellipse class="cls-7" cx="437.98" cy="363.56" rx="4.66" ry="3.38" transform="translate(-37.32 676.75) rotate(-73.08)"/><ellipse class="cls-7" cx="451.5" cy="411.38" rx="4.66" ry="3.38" transform="translate(-147.28 532) rotate(-53.73)"/><ellipse class="cls-7" cx="461.5" cy="405.38" rx="2.61" ry="1.9" transform="translate(-138.35 537.61) rotate(-53.73)"/></svg>
